<svg width="24" height="24" viewBox="0 0 24 24" fill="none" xmlns="http://www.w3.org/2000/svg">
<g clip-path="url(#clip0_154_2141)">
<path d="M21.3628 21.7516C17.6904 24.7495 6.22347 24.7495 2.62598 21.7516C-0.971512 18.7537 -0.671717 5.93775 2.62598 2.56512C5.92367 -0.807513 18.0651 -0.807513 21.3628 2.56512C24.6605 5.93775 25.0353 18.7538 21.3628 21.7516Z" fill="#5CA4DA"/>
<path d="M12.0696 16.5053C8.77189 19.1284 5.09946 20.4775 1.6519 20.5524C-0.89628 16.2055 -0.371678 5.63791 2.62622 2.56508C5.32432 -0.207961 13.7934 -0.732616 18.665 0.991167C19.8641 5.93771 17.3909 12.2332 12.0696 16.5053Z" fill="#6DAFE0"/>
<path d="M4.5 6.53735H6.89831V17.4047H4.5V6.53735ZM17.9155 7.96139C18.9648 8.93571 19.4894 10.2098 19.4894 11.9336C19.4894 13.6574 18.9648 14.9315 17.9905 15.9808C16.9413 16.9551 15.4423 17.4797 13.3438 17.4797H9.59641V6.53735H13.4937C15.3673 6.53735 16.8663 7.06201 17.9155 7.96139ZM16.1168 14.4818C16.7164 13.9571 17.0162 13.1327 17.0162 12.0085C17.0162 10.9593 16.7164 10.1348 16.1168 9.5353C15.5172 8.93571 14.6179 8.63592 13.3438 8.63592H11.9947V15.2313H13.5686C14.6928 15.3062 15.5172 15.0064 16.1168 14.4818Z" fill="white"/>
</g>
<defs>
<clipPath id="clip0_154_2141">
<rect width="24" height="24" fill="white"/>
</clipPath>
</defs>
</svg>
